<?xml version="1.0" standalone="no"?>
<!DOCTYPE svg PUBLIC "-//W3C//DTD SVG 20010904//EN"
 "http://www.w3.org/TR/2001/REC-SVG-20010904/DTD/svg10.dtd">
<svg version="1.0" xmlns="http://www.w3.org/2000/svg"
 width="1000.000000pt" height="1080.000000pt" viewBox="0 0 1000.000000 1080.000000"
 preserveAspectRatio="xMidYMid meet">

<g transform="translate(0.000000,1080.000000) scale(0.100000,-0.100000)"
fill="#000000" stroke="none">
<path d="M4490 8722 c-193 -56 -371 -280 -520 -657 -55 -139 -59 -145 -92
-145 -35 0 -191 64 -304 126 -44 24 -100 46 -123 50 -40 6 -44 5 -84 -37 -54
-57 -67 -107 -67 -254 0 -107 5 -145 32 -250 13 -49 70 -192 104 -261 25 -52
116 -154 187 -209 l37 -30 -56 -70 c-31 -38 -74 -96 -96 -128 l-39 -58 -77 77
c-61 61 -94 85 -160 116 -159 74 -256 80 -344 23 -80 -53 -118 -139 -126 -283
-7 -144 27 -280 112 -451 44 -87 146 -233 196 -281 179 -170 195 -182 282
-203 l53 -13 91 -184 91 -184 -15 -49 c-9 -33 -13 -79 -10 -137 4 -83 6 -91
57 -183 70 -126 159 -219 269 -282 89 -52 89 -51 170 -236 18 -39 31 -52 84
-81 133 -73 335 -140 503 -166 39 -6 100 -16 136 -21 37 -6 156 -11 265 -11
290 0 499 32 719 110 132 46 155 60 155 91 0 44 -81 309 -148 482 -21 54 -27
79 -19 82 7 2 37 9 67 15 98 22 243 72 324 111 43 21 83 36 90 32 6 -3 8 -2 3
2 -4 5 19 25 50 46 204 131 354 340 403 561 13 62 31 99 43 91 6 -3 7 -1 3 5
-4 7 10 56 32 109 65 163 85 265 78 386 -8 128 -10 146 -15 141 -2 -2 -20 20
-38 48 -30 45 -34 59 -30 98 19 203 -116 364 -260 309 -35 -13 -80 -55 -99
-92 -14 -26 -17 -27 -68 -21 -33 4 -68 2 -88 -5 -24 -8 -34 -9 -36 -1 -3 7
-27 45 -54 86 l-50 75 53 72 c159 214 276 424 300 536 28 134 -8 238 -98 282
-43 21 -61 24 -168 23 -104 0 -139 -5 -226 -30 -12 -3 -18 11 -28 73 -39 246
-81 351 -186 469 -74 84 -149 116 -363 160 -479 98 -830 147 -902 126z m-362
-1001 c225 -65 441 -109 641 -132 l114 -13 -49 -44 c-27 -24 -67 -56 -89 -70
-22 -15 -43 -30 -46 -35 -10 -14 -147 -65 -193 -72 -25 -4 -46 -10 -46 -14 0
-26 -416 59 -500 102 l-45 23 1 60 c0 63 48 234 65 234 5 0 71 -18 147 -39z
m805 -158 c-7 -2 -19 -2 -25 0 -7 3 -2 5 12 5 14 0 19 -2 13 -5z m175 0 c-26
-2 -71 -2 -100 0 -29 2 -8 3 47 3 55 0 79 -1 53 -3z m82 -3 c0 -5 -7 -10 -16
-10 -8 0 -12 5 -9 10 3 6 10 10 16 10 5 0 9 -4 9 -10z m49 7 c-2 -1 -11 -8
-20 -15 -13 -9 -16 -9 -16 3 0 8 9 15 20 15 11 0 18 -1 16 -3z m-59 -37 c0 -5
-10 -15 -22 -21 l-23 -12 20 21 c23 24 25 25 25 12z m-111 -83 c-2 -1 -13 -9
-24 -17 -19 -14 -19 -14 -6 3 7 9 18 17 24 17 6 0 8 -1 6 -3z m-269 -50 c0 -7
-6 -19 -12 -26 -11 -11 -10 -12 2 -6 10 5 12 5 5 -2 -5 -6 -21 -14 -35 -18
-19 -5 -21 -4 -10 4 13 9 13 11 -2 11 -9 0 -18 -6 -20 -12 -4 -10 -10 -10 -29
0 l-24 12 24 -6 c13 -3 21 -2 18 2 -2 5 -1 19 4 32 6 17 16 22 44 22 22 0 35
-5 35 -13z m210 8 c0 -2 -10 -9 -22 -15 -22 -11 -22 -10 -4 4 21 17 26 19 26
11z m-310 -21 c0 -11 -34 -33 -50 -34 -13 0 -13 1 0 10 10 6 11 10 3 10 -7 0
-13 5 -13 10 0 6 14 10 30 10 17 0 30 -3 30 -6z m209 -27 c-2 -1 -13 -9 -24
-17 -19 -14 -19 -14 -6 3 7 9 18 17 24 17 6 0 8 -1 6 -3z m-366 -27 c-4 -5
-21 -6 -38 -2 l-30 6 30 6 c33 7 51 2 38 -10z m206 -7 c43 -5 52 -3 46 7 -5 9
-4 11 4 6 26 -17 -5 -26 -82 -25 -45 1 -71 4 -57 7 24 4 24 5 5 13 -17 8 -16
9 5 4 14 -3 49 -8 79 -12z m1025 -144 c122 -93 297 -304 352 -424 l26 -55 -31
-29 c-40 -38 -53 -73 -50 -143 2 -40 -2 -63 -13 -75 -57 -66 -50 -161 19 -234
l24 -26 -23 -15 c-135 -89 -620 -308 -769 -348 -22 -6 -48 -14 -57 -17 -15 -6
-15 -5 -3 10 7 9 17 14 22 11 5 -3 8 -2 7 3 -4 13 49 73 57 65 5 -4 5 -2 2 4
-3 6 4 26 16 45 13 19 31 54 42 79 10 25 35 58 55 75 151 126 302 308 363 437
50 105 67 171 67 260 0 136 -53 229 -175 310 l-65 42 43 27 c23 15 44 28 46
28 2 1 22 -13 45 -30z m-1737 -284 c54 -13 123 -27 153 -31 59 -8 100 -38 100
-73 0 -23 -11 -26 -100 -35 -44 -5 -63 -2 -90 14 -136 78 -167 84 -228 44
l-26 -17 42 -12 c38 -12 132 -61 132 -70 0 -2 -22 -17 -50 -34 -27 -17 -66
-53 -87 -80 -21 -27 -43 -50 -49 -50 -16 -1 -53 93 -60 153 -7 61 8 177 29
228 l15 36 61 -24 c33 -14 105 -35 158 -49z m2584 -61 c26 -28 41 -124 19
-124 -17 0 -140 81 -140 91 0 5 5 19 11 33 19 41 72 41 110 0z m-1961 -16
c-71 -99 -56 -91 -148 -77 -45 7 -86 15 -91 18 -6 4 -13 25 -17 48 l-6 42 123
4 c68 1 134 4 147 5 23 2 23 1 -8 -40z m-1012 -63 c1 -64 8 -104 27 -158 15
-39 27 -80 28 -89 1 -9 5 -14 9 -12 4 3 12 -5 19 -18 6 -12 30 -42 53 -67 23
-25 51 -66 62 -91 16 -37 63 -94 71 -86 2 1 -6 26 -17 54 -25 66 -26 154 -1
208 24 52 90 108 160 135 78 30 245 37 364 15 230 -44 502 -179 688 -343 89
-78 179 -181 179 -205 0 -10 -14 -47 -31 -81 -64 -127 -215 -237 -395 -289
-67 -19 -102 -23 -224 -22 -129 0 -154 3 -226 27 -136 45 -273 150 -396 305
-68 84 -131 149 -203 207 -33 27 -59 53 -57 58 1 4 -2 6 -8 2 -18 -11 -48 14
-55 47 -13 59 -64 182 -109 260 l-44 77 50 76 c27 41 50 75 52 75 2 0 4 -38 4
-85z m1752 4 c-26 -63 -120 -119 -199 -119 -38 0 -101 25 -101 39 0 16 36 13
50 -4 18 -22 73 -19 95 5 10 11 18 33 17 50 -1 33 25 52 103 75 47 14 55 3 35
-46z m-2380 10 c194 -103 377 -401 396 -645 9 -108 0 -154 -29 -154 -25 0
-144 75 -195 124 -19 17 -50 54 -70 81 -20 28 -39 52 -42 55 -12 9 -100 172
-100 184 0 7 -4 16 -8 22 -5 5 -14 29 -21 54 -7 25 -17 55 -22 68 -5 13 -9 72
-9 132 0 105 1 110 21 110 12 0 47 -14 79 -31z m3418 -69 c199 -93 332 -290
281 -417 -68 -168 -117 -215 -187 -179 -46 24 -72 67 -72 120 0 44 -38 137
-61 152 -5 3 -7 10 -3 15 3 5 1 8 -4 7 -11 -3 -52 40 -52 54 0 4 -6 8 -13 8
-8 0 -22 9 -32 20 -10 11 -13 20 -7 20 20 0 82 -42 76 -51 -3 -5 2 -9 10 -9
17 0 44 -25 120 -110 l49 -55 -5 56 c-9 111 -104 263 -208 330 -50 32 -65 53
-54 71 11 17 93 0 162 -32z m-177 -351 c27 -12 48 -23 46 -25 -2 -2 -30 8 -63
21 -32 14 -53 25 -46 25 7 0 36 -10 63 -21z m119 -76 c0 -7 -39 17 -46 28 -3
6 5 3 20 -6 14 -10 26 -19 26 -22z m-2548 -210 c53 -54 125 -131 161 -171 36
-40 83 -89 106 -109 l42 -35 -73 -39 c-61 -32 -83 -38 -133 -39 l-61 0 -81
168 -82 167 6 78 c3 42 9 77 12 77 4 0 50 -44 103 -97z m2387 -29 c12 -30 21
-68 21 -85 0 -28 -6 -33 -66 -60 -140 -64 -268 -75 -366 -31 l-43 19 64 32
c34 18 70 30 78 27 8 -3 11 -1 8 4 -3 5 25 25 62 44 37 19 99 52 137 75 38 22
73 38 77 35 4 -2 17 -29 28 -60z m395 -61 c0 -16 -3 -35 -6 -43 -4 -8 -8 -22
-11 -31 -6 -17 -102 -38 -114 -25 -4 3 6 6 20 6 15 0 27 5 27 11 0 7 10 9 25
7 22 -5 26 -1 35 36 20 75 26 84 24 39z m-151 -100 c-7 -2 -19 -2 -25 0 -7 3
-2 5 12 5 14 0 19 -2 13 -5z m-887 -100 c-3 -16 -10 -72 -17 -126 -11 -95 -13
-98 -43 -114 -141 -73 -421 -295 -559 -445 l-87 -93 0 41 c0 111 56 326 118
449 59 119 87 153 135 165 73 19 354 110 399 129 57 26 60 26 54 -6z m769 7
c43 -11 111 -20 152 -20 84 0 86 -4 53 -77 -95 -210 -415 -445 -705 -518 -144
-36 -160 -35 -186 18 -40 79 -129 198 -129 174 0 -4 25 -74 55 -157 115 -316
224 -708 202 -722 -19 -12 -154 -55 -242 -77 -138 -34 -286 -51 -448 -51 -152
0 -155 0 -160 23 -31 142 -57 287 -62 352 l-6 80 69 85 c92 112 295 309 405
391 77 58 181 124 284 180 29 16 30 18 47 165 10 82 19 150 20 151 1 2 21 -6
44 -17 78 -38 160 -53 246 -46 76 6 199 41 255 71 14 8 26 14 27 15 0 0 36 -9
79 -20z m-1974 -149 c47 -17 117 -33 155 -37 l69 -6 38 -64 c20 -35 65 -100
98 -144 l61 -81 -16 -87 c-8 -48 -18 -121 -22 -163 l-7 -77 -31 36 c-48 55
-224 211 -359 318 -67 54 -123 98 -125 99 -1 1 3 57 10 124 10 103 15 121 28
117 8 -3 54 -19 101 -35z m549 -26 c0 -14 -81 -165 -89 -165 -10 0 -91 122
-91 137 0 6 33 15 73 21 94 12 107 13 107 7z m-1023 -71 c-3 -3 -12 -4 -19 -1
-8 3 -5 6 6 6 11 1 17 -2 13 -5z m86 -1 c-13 -2 -35 -2 -50 0 -16 2 -5 4 22 4
28 0 40 -2 28 -4z m51 -11 c3 -5 -1 -9 -9 -9 -8 0 -15 4 -15 9 0 4 4 8 9 8 6
0 12 -4 15 -8z m-114 -12 c0 -13 -11 -13 -30 0 -12 8 -11 10 8 10 12 0 22 -4
22 -10z m-121 -27 c-12 -15 -12 -16 6 -9 48 18 76 18 95 1 27 -25 25 -67 -6
-117 -19 -30 -22 -39 -10 -35 23 9 20 0 -5 -14 -15 -8 -19 -8 -15 0 4 6 4 11
-1 11 -4 0 -21 -22 -36 -48 l-28 -47 32 35 31 35 -29 -42 c-15 -22 -31 -39
-34 -37 -3 2 -13 -21 -21 -52 -9 -30 -12 -57 -7 -59 4 -3 10 4 14 15 3 11 16
25 27 31 11 6 50 33 87 60 37 27 77 49 88 49 12 0 23 6 26 13 3 9 7 9 20 -2
15 -12 14 -16 -8 -45 -14 -18 -22 -36 -17 -41 4 -5 2 -5 -5 -2 -10 6 -54 -40
-78 -83 -7 -12 -6 -13 6 -5 12 8 12 7 -1 -5 -21 -21 -50 -86 -50 -115 0 -24 1
-23 35 11 19 19 35 32 35 29 0 -3 10 3 21 14 12 11 36 23 53 27 17 3 36 10 42
15 6 5 18 3 28 -4 16 -11 12 -17 -38 -51 -31 -21 -56 -42 -56 -47 0 -4 -9 -11
-20 -14 -11 -3 -20 -13 -20 -21 0 -8 -4 -14 -8 -14 -4 0 -16 -14 -26 -30 l-17
-30 -31 17 c-97 57 -198 246 -198 373 0 62 28 136 65 173 19 19 35 39 35 44 0
9 20 33 28 33 3 0 -2 -8 -9 -17z m202 7 c0 -3 2 -14 4 -25 1 -11 6 -27 9 -36
4 -10 3 -20 -3 -24 -6 -3 -9 0 -5 9 6 16 -29 31 -48 20 -7 -4 -10 -4 -6 1 4 4
3 14 -2 20 -16 19 -1 43 26 41 13 0 24 -3 25 -6z m69 -18 c0 -15 -2 -15 -10
-2 -13 20 -13 33 0 25 6 -3 10 -14 10 -23z m0 -26 c0 -2 -8 -10 -17 -17 -16
-13 -17 -12 -4 4 13 16 21 21 21 13z m-30 -143 c-8 -3 -24 -13 -34 -22 -11 -9
-16 -10 -12 -3 4 7 2 12 -6 13 -16 1 31 17 52 17 13 0 13 0 0 -5z m88 -43 c2
-12 -1 -20 -6 -16 -5 3 -9 -1 -8 -10 0 -9 -8 -22 -20 -30 -21 -14 -21 -14 -9
33 10 36 10 52 1 63 -9 12 -6 12 14 -1 14 -9 27 -26 28 -39z m239 -89 c109
-91 297 -275 356 -347 21 -25 28 -51 42 -154 9 -68 25 -165 35 -214 11 -49 18
-92 15 -94 -7 -7 -146 16 -260 43 -98 23 -268 80 -321 108 l-26 14 82 34 c45
19 84 39 87 45 2 7 -30 81 -72 165 -43 84 -73 155 -69 156 5 2 24 12 42 23 96
59 95 206 -2 241 -31 11 -36 17 -36 46 0 18 2 33 5 33 3 0 58 -45 122 -99z
m-307 15 c0 -2 -7 -6 -15 -10 -8 -3 -15 -1 -15 4 0 6 7 10 15 10 8 0 15 -2 15
-4z"/>
<path d="M4113 6600 c-74 -16 -144 -66 -164 -118 -31 -80 11 -211 92 -289 43
-41 118 -82 151 -83 15 0 38 -51 38 -84 0 -17 -114 5 -157 30 -48 28 -52 24
-24 -22 22 -36 72 -77 116 -95 68 -27 338 -46 414 -29 113 25 219 99 263 185
l20 39 -23 -17 c-112 -80 -201 -107 -339 -106 -130 1 -142 6 -160 58 -14 40
-14 43 5 57 83 59 116 123 118 223 2 109 -49 188 -148 232 -49 22 -146 31
-202 19z"/>
<path d="M5037 3880 c-91 -23 -165 -82 -201 -160 -17 -37 -21 -64 -21 -155 1
-120 15 -166 71 -241 73 -95 279 -128 403 -64 73 37 131 121 131 190 l0 30
-116 0 -115 0 -14 -34 c-25 -58 -73 -56 -94 5 -16 47 -14 180 4 223 20 47 60
59 87 26 10 -12 18 -31 18 -41 0 -25 27 -30 135 -27 l90 3 0 56 c0 73 -37 130
-109 167 -42 21 -67 26 -141 28 -49 2 -107 -1 -128 -6z"/>
<path d="M2519 3874 c-10 -3 -20 -15 -23 -27 -3 -12 -6 -146 -6 -298 0 -205 3
-280 13 -292 11 -15 33 -17 197 -14 169 2 189 4 235 25 119 55 175 152 175
301 0 102 -26 173 -83 228 -65 61 -118 74 -322 78 -93 2 -177 2 -186 -1z m311
-152 c37 -28 52 -84 48 -172 -5 -82 -24 -131 -62 -156 -25 -16 -81 -22 -93
-11 -10 10 -9 340 1 356 11 18 72 8 106 -17z"/>
<path d="M3848 3873 l-168 -3 0 -78 c0 -42 4 -82 8 -88 4 -5 35 -10 69 -10 34
0 66 -3 70 -8 4 -4 8 -105 8 -224 l0 -217 125 0 125 0 3 228 2 227 74 0 74 0
4 78 c2 42 2 83 0 90 -3 9 -34 11 -116 10 -61 -1 -186 -4 -278 -5z"/>
<path d="M5588 3873 l-148 -4 0 -83 c0 -93 2 -96 65 -90 22 2 51 2 63 -1 l24
-6 -3 -214 c-2 -140 0 -218 7 -225 7 -7 57 -10 130 -8 l119 3 3 227 2 227 33
6 c18 4 44 5 57 4 61 -5 61 -6 58 84 l-3 82 -130 0 c-71 1 -196 -1 -277 -2z"/>
<path d="M6040 3561 l0 -321 123 0 124 0 7 311 c4 171 6 313 4 314 -2 1 -60 6
-130 10 l-128 7 0 -321z"/>
<path d="M6357 3873 c-12 -3 -16 -10 -12 -21 13 -34 59 -192 94 -322 11 -41
33 -122 50 -180 17 -58 31 -106 31 -107 0 -7 307 -2 317 5 18 11 36 68 87 270
25 97 56 215 70 262 19 63 22 86 13 92 -15 9 -103 10 -175 2 -60 -8 -53 7 -97
-204 -32 -153 -46 -200 -57 -200 -4 0 -8 3 -8 8 0 25 -68 384 -74 390 -8 8
-211 12 -239 5z"/>
<path d="M3188 3568 c-3 -166 -4 -308 -1 -315 4 -11 55 -13 247 -11 l241 3 3
55 c2 30 0 70 -3 89 l-6 34 -120 -6 -119 -5 0 34 0 34 105 0 c122 0 122 0 109
88 l-9 57 -105 5 -105 5 0 35 0 35 110 0 c61 0 116 4 123 8 8 5 12 34 12 83
l0 74 -239 0 -238 0 -5 -302z"/>
<path d="M4282 3558 l3 -313 220 -3 c121 -1 230 0 243 3 21 5 22 10 22 91 l0
86 -117 -3 -118 -4 -3 33 -3 32 112 0 112 0 -7 53 c-3 28 -6 62 -6 74 0 21 -4
22 -102 25 l-103 3 0 35 0 35 109 -4 c84 -3 110 0 117 10 5 8 9 47 9 87 l0 72
-245 0 -245 0 2 -312z"/>
<path d="M7050 3561 c0 -171 3 -312 8 -314 4 -3 113 -2 242 2 l235 6 3 66 c4
97 -4 103 -133 94 l-102 -7 -7 26 c-4 15 -4 31 -1 36 4 6 42 10 85 10 43 0 90
4 104 10 23 8 26 15 26 58 0 74 -9 81 -120 84 l-95 3 0 35 0 35 115 5 115 5 0
75 0 75 -237 3 -238 2 0 -309z"/>
<path d="M5187 3080 c-46 -14 -67 -46 -67 -102 0 -82 62 -125 137 -95 54 21
80 75 62 130 -19 58 -73 85 -132 67z m60 -55 c5 -8 6 -36 3 -62 -4 -37 -9 -49
-24 -51 -38 -8 -61 62 -36 109 13 23 46 25 57 4z"/>
<path d="M5688 3077 c-60 -23 -55 -105 7 -117 17 -4 39 -11 48 -17 17 -9 17
-11 2 -23 -12 -10 -19 -10 -27 -2 -7 7 -25 12 -41 12 -38 0 -33 -29 7 -49 40
-19 114 4 136 42 13 24 13 28 -3 44 -9 9 -36 24 -59 33 -52 19 -47 36 10 32
51 -4 58 19 12 43 -33 17 -53 18 -92 2z"/>
<path d="M3259 3073 c-21 -3 -29 -13 -39 -46 -7 -23 -16 -51 -20 -62 -15 -37
-19 -70 -10 -85 8 -12 14 -11 39 8 38 28 64 28 100 1 54 -40 63 -7 31 105 -24
86 -29 90 -101 79z m44 -75 c7 -53 -9 -76 -38 -54 -17 12 -18 18 -7 55 17 54
38 53 45 -1z"/>
<path d="M3530 3073 c-39 -14 -60 -46 -60 -93 0 -77 62 -121 148 -104 37 7 48
14 56 35 5 14 6 38 2 53 -6 23 -11 26 -51 26 -38 0 -45 -3 -45 -20 0 -11 7
-20 15 -20 8 0 15 -7 15 -15 0 -10 -10 -15 -29 -15 -35 0 -46 24 -37 76 9 44
20 49 62 29 43 -20 65 -14 57 15 -9 33 -83 51 -133 33z"/>
<path d="M3777 3074 c-4 -4 -7 -47 -7 -94 0 -103 7 -114 74 -106 25 2 50 7 56
11 19 12 10 35 -12 35 -40 0 -47 13 -50 85 -3 67 -4 70 -28 73 -14 2 -29 0
-33 -4z"/>
<path d="M4005 3068 c-2 -7 -5 -48 -8 -91 -5 -91 6 -114 46 -103 27 6 27 7 27
100 0 76 -3 95 -16 100 -25 10 -44 7 -49 -6z"/>
<path d="M4183 3070 c-21 -9 -23 -16 -23 -92 0 -46 5 -90 10 -98 15 -24 44 1
50 44 3 20 9 38 13 39 5 1 18 -18 31 -43 17 -35 29 -46 51 -48 15 -2 32 2 36
10 5 7 9 52 9 99 0 70 -3 88 -16 93 -23 9 -34 -1 -35 -32 0 -15 -4 -36 -8 -47
-7 -17 -11 -13 -32 30 -25 52 -44 62 -86 45z"/>
<path d="M4473 3073 c-15 -6 -18 -170 -4 -192 13 -20 136 -3 136 19 0 10 -10
15 -32 15 -38 1 -48 8 -40 30 4 9 19 15 37 15 23 0 30 5 30 19 0 15 -7 19 -32
17 -48 -2 -45 27 3 34 33 5 36 7 28 28 -7 19 -15 22 -61 21 -29 0 -59 -3 -65
-6z"/>
<path d="M4895 3073 c-29 -7 -44 -22 -60 -60 -38 -91 58 -169 164 -132 29 10
31 14 31 60 l0 49 -35 0 c-35 0 -63 -29 -37 -38 19 -6 14 -29 -7 -35 -30 -8
-53 24 -49 69 4 51 25 62 73 40 40 -19 60 -12 49 18 -12 30 -70 43 -129 29z"/>
<path d="M5417 3073 c-14 -13 -8 -166 7 -182 21 -23 129 -14 134 12 3 14 -4
17 -38 17 -34 0 -41 3 -38 18 2 11 13 17 33 17 23 0 31 5 33 23 3 19 -1 22
-32 22 -25 0 -36 4 -36 15 0 10 10 15 34 15 25 0 35 5 39 19 3 11 2 22 -1 25
-8 8 -127 7 -135 -1z"/>
<path d="M6056 3065 c-21 -21 -23 -152 -2 -180 20 -28 63 -7 68 32 2 20 9 28
23 28 15 0 21 -8 23 -32 3 -33 35 -54 53 -36 5 5 12 50 15 100 l7 92 -27 7
c-32 8 -56 -10 -56 -42 0 -17 -6 -24 -19 -24 -15 0 -21 8 -23 33 -4 37 -35 49
-62 22z"/>
<path d="M6342 3068 c-15 -15 -16 -136 -2 -172 9 -24 15 -26 64 -26 44 0 57 4
66 19 15 29 13 31 -25 31 -46 0 -49 27 -2 32 24 2 33 8 35 26 3 20 -1 22 -37
22 -32 0 -39 3 -35 15 4 9 19 15 40 15 30 0 34 3 34 25 0 24 -2 25 -63 25 -36
0 -68 -5 -75 -12z"/>
<path d="M6570 3061 c-14 -26 -13 -134 2 -166 19 -42 68 -27 68 22 0 36 36 30
49 -8 8 -24 15 -30 33 -27 27 4 36 44 18 79 -9 15 -9 24 -1 32 18 18 13 65 -8
77 -11 5 -49 10 -85 10 -54 0 -67 -3 -76 -19z m118 -44 c4 -20 -25 -34 -40
-19 -15 15 -1 44 19 40 10 -2 19 -11 21 -21z"/>
<path d="M6847 3073 c-4 -3 -7 -43 -7 -87 1 -100 13 -121 58 -105 28 10 31 15
29 47 -1 23 3 37 11 38 6 1 19 2 27 3 28 2 15 20 -17 23 -42 4 -44 30 -3 39
17 4 23 7 15 8 -12 1 -12 4 3 15 16 12 16 14 1 20 -21 8 -109 8 -117 -1z"/>
<path d="M2960 3055 c0 -9 11 -20 24 -25 23 -8 24 -14 24 -75 -2 -72 11 -97
40 -79 12 8 18 29 22 80 5 62 7 69 28 72 14 2 22 10 22 23 0 17 -8 19 -80 19
-65 0 -80 -3 -80 -15z"/>
</g>
</svg>
