<?xml version="1.0" standalone="no"?>
<!DOCTYPE svg PUBLIC "-//W3C//DTD SVG 20010904//EN"
 "http://www.w3.org/TR/2001/REC-SVG-20010904/DTD/svg10.dtd">
<svg version="1.0" xmlns="http://www.w3.org/2000/svg"
 width="1000.000000pt" height="1080.000000pt" viewBox="0 0 1000.000000 1080.000000"
 preserveAspectRatio="xMidYMid meet">

<g transform="translate(0.000000,1080.000000) scale(0.100000,-0.100000)"
fill="#000000" stroke="none">
<path d="M4066 10070 c-56 -10 -195 -75 -269 -127 -104 -71 -281 -267 -348
-383 -14 -25 -51 -85 -81 -135 -61 -102 -130 -233 -157 -304 -20 -50 -76 -174
-92 -203 -5 -10 -9 -22 -9 -28 0 -5 -13 -39 -30 -75 -16 -36 -30 -68 -30 -71
0 -8 -26 -68 -52 -121 -20 -42 -22 -43 -72 -43 -87 0 -161 28 -476 178 -30 14
-87 45 -126 68 -91 53 -174 84 -225 84 -98 0 -180 -85 -227 -234 -25 -80 -23
-518 2 -641 23 -113 84 -299 130 -396 19 -41 45 -108 57 -149 14 -46 40 -101
68 -140 47 -69 301 -330 320 -330 7 0 23 -10 37 -23 l25 -24 -43 -49 c-24 -27
-59 -69 -78 -94 -19 -25 -37 -47 -40 -50 -14 -13 -70 -90 -95 -130 -15 -24
-34 -50 -41 -57 -6 -7 -22 -28 -34 -48 -12 -19 -23 -35 -26 -35 -2 0 -63 60
-136 133 -126 127 -218 197 -260 197 -10 0 -62 20 -116 44 -54 24 -123 49
-153 56 -30 7 -67 16 -83 21 -49 15 -141 10 -211 -12 -64 -20 -104 -43 -172
-100 -33 -28 -103 -122 -103 -139 0 -6 -4 -18 -9 -28 -17 -33 -30 -67 -36 -97
-38 -181 -45 -323 -19 -445 8 -41 18 -97 21 -125 3 -27 9 -54 12 -60 4 -5 13
-30 20 -55 7 -25 19 -57 27 -72 8 -14 14 -33 14 -42 0 -8 10 -37 22 -63 12
-27 32 -73 46 -103 14 -30 33 -67 44 -82 10 -14 18 -30 18 -36 0 -13 133 -227
176 -282 113 -145 162 -205 189 -227 70 -60 170 -151 199 -183 71 -78 94 -97
151 -124 33 -16 69 -32 80 -36 59 -21 94 -30 116 -30 26 0 69 -25 69 -40 0 -5
56 -123 124 -262 68 -139 138 -284 155 -321 l33 -68 -17 -57 c-9 -31 -21 -73
-26 -92 -12 -41 -6 -267 8 -327 9 -37 179 -349 203 -373 3 -3 18 -23 35 -45
95 -128 251 -255 423 -345 87 -46 116 -86 201 -272 11 -26 21 -52 21 -57 0
-13 49 -110 72 -143 43 -62 338 -202 583 -277 22 -7 49 -16 60 -20 115 -45
383 -102 566 -120 53 -6 126 -15 162 -21 82 -15 864 -8 952 8 33 6 101 16 150
22 137 18 232 36 315 58 41 11 100 27 130 35 52 14 110 34 190 62 19 7 62 23
95 35 119 43 215 94 221 117 7 25 -5 83 -43 213 -14 47 -27 94 -30 105 -2 11
-8 29 -13 40 -17 44 -60 185 -60 198 0 7 -8 31 -19 53 -10 21 -24 60 -32 87
-7 26 -17 47 -21 47 -4 0 -8 11 -8 25 0 14 -4 33 -9 43 -21 42 -41 94 -41 107
0 9 -4 24 -10 35 -5 11 -14 29 -20 40 -5 11 -10 27 -10 35 0 8 -5 15 -11 15
-8 0 -8 4 0 14 7 8 33 16 59 19 73 8 317 73 364 98 10 5 27 9 38 9 11 0 20 5
20 10 0 6 8 10 18 10 46 1 364 144 413 186 8 8 19 14 23 14 4 0 34 18 67 40
33 22 63 40 65 40 28 0 340 290 366 340 7 13 28 40 46 59 17 20 32 39 32 44 0
4 17 34 38 65 46 70 104 187 132 267 12 33 25 69 30 80 19 47 30 84 44 156 8
42 24 93 36 113 11 20 20 44 20 52 0 10 6 14 14 11 10 -4 12 0 9 14 -3 10 8
47 25 81 16 35 33 74 36 88 4 14 11 35 17 48 9 23 23 56 38 95 5 12 14 42 21
67 7 25 16 54 20 65 59 151 82 539 39 649 -18 47 -72 160 -78 166 -4 3 -18 22
-33 42 -28 36 -28 38 -27 192 0 90 -4 164 -10 175 -6 11 -11 29 -11 40 0 12
-4 30 -10 41 -5 11 -14 29 -20 40 -5 11 -10 27 -10 35 0 8 -4 15 -10 15 -5 0
-10 6 -10 13 0 15 -75 95 -121 129 -160 117 -383 52 -474 -138 l-24 -52 -63
14 c-97 20 -148 16 -240 -21 -11 -4 -18 0 -23 14 -3 11 -26 50 -51 85 -24 36
-44 68 -44 71 0 7 -47 72 -67 93 -19 20 -28 65 -14 70 6 2 28 29 48 60 19 32
39 59 42 62 4 3 35 43 69 90 35 47 69 93 77 103 8 9 15 20 15 23 0 3 25 41 55
85 30 44 55 81 55 84 0 3 15 28 34 57 18 29 48 82 67 118 19 36 36 67 39 70 9
9 72 149 91 203 7 20 16 37 20 37 4 0 9 17 12 38 3 20 11 57 18 82 17 65 23
246 9 284 -28 75 -58 124 -100 166 -115 116 -316 153 -595 110 -100 -15 -129
-21 -150 -30 -11 -5 -31 -11 -45 -13 -14 -3 -35 -9 -47 -12 -21 -7 -23 -4 -23
32 0 22 -4 53 -9 69 -5 16 -17 83 -26 149 -34 239 -67 348 -140 465 -29 47
-66 108 -81 136 -60 108 -180 235 -269 285 -55 32 -75 41 -137 69 -48 21 -176
58 -238 70 -36 6 -74 14 -85 16 -11 3 -45 9 -75 14 -120 19 -227 40 -265 50
-22 6 -69 15 -105 20 -36 4 -96 15 -135 24 -38 9 -85 16 -103 16 -18 0 -49 7
-69 15 -19 8 -50 15 -67 15 -17 0 -67 7 -111 16 -44 9 -109 20 -145 24 -36 5
-120 18 -188 29 -141 23 -384 34 -456 21z m-867 -1809 c52 -17 115 -35 216
-62 22 -6 50 -15 63 -20 13 -5 34 -9 47 -9 14 0 25 -4 25 -9 0 -5 17 -11 38
-14 20 -3 84 -17 142 -31 170 -43 193 -48 240 -52 25 -3 54 -9 65 -14 11 -5
36 -11 55 -14 70 -10 156 -25 215 -36 70 -13 153 -24 325 -40 140 -14 160 -18
143 -28 -6 -4 -50 -43 -97 -86 -80 -75 -139 -118 -178 -132 -10 -4 -18 -10
-18 -15 0 -5 -6 -9 -14 -9 -8 0 -17 -7 -20 -15 -3 -9 -30 -27 -61 -41 -30 -14
-57 -30 -60 -35 -4 -5 -10 -7 -14 -4 -11 6 -104 -27 -125 -44 -9 -7 -55 -18
-103 -23 -49 -6 -90 -14 -93 -18 -6 -9 -174 4 -255 20 -27 5 -75 14 -105 19
-30 5 -89 17 -130 26 -41 8 -92 18 -113 22 -21 3 -40 10 -43 14 -3 5 -17 9
-32 9 -81 0 -299 92 -323 136 -16 30 -16 135 0 187 27 92 54 174 61 192 4 11
16 48 25 83 21 72 30 75 124 43z m1658 -337 c-3 -3 -12 -4 -19 -1 -8 3 -5 6 6
6 11 1 17 -2 13 -5z m564 -10 c-21 -15 -24 -15 -39 0 -15 15 -13 16 23 16 39
0 39 0 16 -16z m-71 -4 c0 -5 -11 -10 -25 -10 -14 0 -25 5 -25 10 0 6 11 10
25 10 14 0 25 -4 25 -10z m-33 -65 c-23 -22 -33 -18 -12 5 10 11 20 18 23 16
2 -3 -3 -12 -11 -21z m-695 -253 c-4 -39 -29 -73 -48 -65 -8 3 -11 9 -8 14 8
13 -10 11 -40 -4 -14 -8 -23 -17 -19 -20 3 -4 -9 -7 -28 -7 -25 0 -30 3 -19
10 8 5 11 12 8 16 -4 3 -1 13 7 20 7 8 12 22 11 31 -5 29 25 43 84 40 l55 -2
-3 -33z m-187 -24 c-3 -12 1 -26 8 -30 8 -5 7 -8 -5 -8 -10 0 -19 8 -19 18 -1
16 -2 16 -6 0 -3 -13 -14 -18 -41 -17 -20 1 -29 3 -19 6 21 5 22 22 2 29 -31
12 -13 24 34 24 46 0 50 -2 46 -22z m374 -44 c-17 -21 -31 -17 -17 5 7 11 16
17 20 14 5 -2 4 -11 -3 -19z m-649 -23 c0 -18 -19 -22 -72 -14 l-53 8 55 6
c30 3 58 6 63 7 4 1 7 -2 7 -7z m407 -26 c44 0 68 -4 63 -9 -10 -10 -278 -11
-288 -2 -3 3 9 6 26 6 20 0 32 5 32 14 0 11 9 11 48 3 26 -6 79 -11 119 -12z
m1878 -278 c44 -35 137 -119 206 -188 220 -217 383 -443 467 -649 21 -51 22
-56 6 -65 -106 -63 -160 -196 -136 -335 l12 -64 -34 -36 c-60 -61 -76 -102
-76 -186 0 -63 5 -85 30 -137 16 -34 50 -85 74 -113 34 -38 42 -54 33 -63 -6
-6 -16 -11 -22 -11 -6 0 -28 -12 -50 -27 -38 -26 -74 -45 -270 -149 -148 -77
-160 -83 -245 -123 -164 -76 -221 -101 -228 -101 -4 0 -34 -13 -67 -30 -33
-16 -65 -30 -72 -30 -7 0 -27 -8 -45 -18 -18 -10 -69 -31 -113 -46 -84 -29
-98 -34 -155 -59 -71 -31 -310 -105 -310 -96 0 5 4 9 10 9 13 0 111 105 141
153 4 5 13 6 20 2 9 -6 11 -3 6 8 -4 11 10 42 38 86 25 38 45 74 45 79 0 6 14
36 30 67 17 31 30 63 30 70 0 7 10 19 23 28 12 8 33 24 47 36 14 11 43 36 65
53 52 43 214 206 292 294 119 133 273 358 321 469 8 16 20 42 28 57 20 36 50
125 74 215 15 55 20 105 20 205 0 148 -9 190 -65 303 -61 124 -160 218 -358
339 l-29 18 69 39 c37 21 75 43 83 48 22 14 20 16 105 -52z m-3464 -453 c156
-55 336 -100 499 -124 145 -21 152 -25 178 -72 12 -24 22 -57 22 -74 0 -28 -4
-32 -37 -38 -21 -3 -59 -6 -84 -6 -26 0 -69 -4 -97 -10 -65 -12 -90 -4 -214
72 -110 67 -173 89 -226 81 -43 -7 -122 -44 -141 -67 -11 -13 -9 -16 16 -21
84 -19 197 -72 256 -121 l28 -23 -23 -14 c-13 -8 -43 -27 -68 -42 -58 -36
-139 -113 -192 -184 -48 -62 -58 -72 -70 -65 -14 9 -58 103 -80 168 -50 154
-24 467 50 583 13 22 15 22 50 7 21 -9 80 -32 133 -50z m4996 -143 c62 -38
109 -167 89 -245 -10 -39 -34 -33 -122 29 -44 30 -95 65 -114 78 -19 12 -36
32 -38 44 -5 31 27 93 52 103 37 15 100 11 133 -9z m-3559 1 c-1 -4 -41 -58
-87 -120 -89 -119 -90 -119 -164 -103 -23 5 -87 17 -142 27 -55 9 -105 22
-112 28 -7 6 -15 44 -19 84 l-7 72 164 1 c90 1 193 5 229 9 94 10 142 11 138
2z m-1931 -185 c1 -132 5 -164 27 -242 25 -86 83 -216 98 -223 5 -2 8 -8 8
-13 0 -20 80 -124 159 -208 21 -23 44 -56 51 -73 28 -73 35 -88 42 -88 5 0 8
-8 8 -18 0 -10 25 -42 55 -71 63 -61 71 -51 31 40 -36 82 -50 155 -48 249 2
117 35 200 114 279 89 90 187 140 353 178 96 23 366 22 493 -1 427 -78 842
-266 1212 -549 123 -94 372 -340 424 -418 42 -63 41 -69 -19 -189 -50 -101
-95 -161 -179 -245 -193 -192 -464 -316 -779 -355 -155 -20 -406 -8 -537 25
-225 56 -411 162 -596 340 -79 76 -226 240 -264 295 -21 30 -47 65 -59 77 -12
12 -22 32 -22 45 -1 18 -2 19 -6 5 -4 -17 -6 -16 -24 5 -42 49 -123 128 -132
128 -5 0 -3 7 4 16 12 15 11 16 -8 10 -15 -5 -25 -1 -35 11 -7 10 -38 36 -68
58 -30 22 -56 43 -58 47 -2 5 -8 8 -13 8 -6 0 -19 9 -31 20 -12 11 -28 20 -35
20 -7 0 -13 4 -13 9 0 5 -10 11 -23 15 -17 4 -26 17 -35 53 -7 26 -24 83 -38
126 -13 43 -24 87 -24 98 0 10 -4 19 -10 19 -5 0 -10 6 -10 14 0 14 -40 97
-51 106 -4 3 -9 14 -13 26 -3 11 -35 70 -71 130 -36 60 -65 114 -65 120 0 20
171 274 184 274 1 0 2 -69 3 -153z m-1228 81 c171 -98 298 -199 376 -299 22
-28 53 -65 69 -82 37 -41 129 -183 162 -250 14 -29 39 -79 55 -112 34 -67 37
-72 73 -167 14 -36 26 -76 26 -87 0 -11 4 -22 8 -25 9 -5 24 -99 42 -267 8
-72 8 -113 -1 -165 -14 -80 -31 -104 -71 -104 -28 0 -41 7 -198 108 -131 84
-300 266 -412 442 -49 77 -133 236 -153 290 -20 54 -35 89 -45 110 -4 9 -11
31 -15 50 -3 19 -15 60 -25 90 -16 47 -21 97 -31 290 -1 8 2 51 6 95 12 123
36 139 134 83z m4511 10 c0 -75 -103 -207 -199 -256 -118 -60 -226 -63 -344
-10 -52 24 -55 36 -13 56 25 13 29 11 66 -22 34 -30 47 -36 86 -36 84 0 132
59 120 146 l-6 45 68 31 c81 37 169 67 200 67 16 1 22 -5 22 -21z m1794 -148
c5 -5 17 -10 26 -10 40 0 239 -115 320 -185 42 -36 125 -120 160 -160 42 -50
109 -168 125 -220 19 -65 19 -185 0 -232 -8 -19 -15 -45 -15 -58 0 -12 -9 -30
-20 -40 -11 -10 -20 -31 -20 -47 0 -16 -6 -31 -15 -34 -8 -3 -17 -16 -21 -27
-3 -12 -17 -36 -30 -54 -13 -17 -24 -35 -25 -40 0 -4 -14 -19 -31 -32 -65 -52
-174 -35 -239 36 -51 55 -58 74 -60 165 -2 91 -18 141 -68 204 -12 15 -21 34
-21 43 0 9 -29 46 -65 84 -35 37 -66 76 -70 86 -3 11 -16 22 -28 25 -24 6 -77
51 -77 66 0 14 37 13 46 -1 3 -6 26 -19 50 -29 24 -11 44 -24 44 -30 0 -21 5
-25 43 -42 21 -10 41 -27 44 -38 3 -11 11 -20 17 -20 14 0 178 -175 188 -200
3 -9 13 -20 22 -23 11 -5 16 4 21 37 7 43 -10 152 -27 171 -4 5 -8 17 -8 27 0
10 -4 26 -9 36 -5 9 -20 40 -33 67 -29 60 -49 95 -63 110 -5 7 -19 25 -30 41
-39 57 -183 190 -243 224 -66 38 -106 94 -80 112 17 12 178 2 192 -12z m-251
-687 c-7 -2 -21 -2 -30 0 -10 3 -4 5 12 5 17 0 24 -2 18 -5z m40 -20 c-7 -2
-19 -2 -25 0 -7 3 -2 5 12 5 14 0 19 -2 13 -5z m34 -19 c-3 -3 -12 -4 -19 -1
-8 3 -5 6 6 6 11 1 17 -2 13 -5z m-4713 -350 c54 -45 208 -198 281 -279 39
-43 91 -101 116 -129 25 -28 61 -69 80 -91 42 -49 163 -167 207 -202 39 -31
40 -38 5 -56 -16 -7 -73 -38 -128 -67 l-100 -54 -112 -2 -113 -2 -56 117 c-31
64 -99 202 -151 306 -87 176 -94 193 -89 235 3 25 8 91 12 148 4 56 9 102 11
102 3 0 19 -12 37 -26z m4560 -139 c14 -25 30 -62 37 -83 6 -20 16 -46 21 -57
5 -12 8 -47 6 -78 -3 -66 -1 -64 -151 -132 -98 -45 -165 -64 -291 -83 -82 -12
-113 -13 -185 -3 -47 7 -94 17 -103 22 -10 5 -24 9 -32 9 -20 0 -96 42 -91 50
2 4 35 21 72 39 125 60 338 166 343 171 3 3 19 12 35 21 111 60 153 84 177
100 14 11 31 19 36 19 6 0 12 3 14 8 4 10 60 41 75 42 6 0 23 -20 37 -45z
m768 -153 c-16 -5 -15 -35 0 -50 9 -9 7 -19 -10 -42 -12 -16 -22 -40 -22 -53
0 -43 -37 -57 -160 -63 -54 -2 -58 -1 -22 5 23 4 48 16 56 26 10 15 21 17 54
12 36 -6 41 -5 48 15 4 13 7 35 6 50 -1 15 2 29 8 33 5 3 10 18 10 32 0 30 32
73 39 52 2 -7 -1 -15 -7 -17z m-279 -209 c-13 -2 -33 -2 -45 0 -13 2 -3 4 22
4 25 0 35 -2 23 -4z m-308 -153 c80 -34 237 -60 376 -61 149 -2 145 2 108
-103 -45 -125 -137 -254 -289 -407 -168 -168 -341 -293 -575 -415 -235 -122
-494 -205 -712 -228 l-52 -5 -41 81 c-98 193 -287 418 -229 271 6 -15 38 -104
70 -198 33 -93 63 -179 69 -190 24 -51 176 -528 234 -735 48 -175 106 -408
106 -430 0 -14 -20 -26 -77 -48 -236 -90 -526 -160 -821 -197 -129 -16 -589
-31 -643 -21 -33 6 -36 10 -52 64 -34 120 -76 321 -96 462 -35 248 -39 311
-21 333 5 7 40 50 77 97 365 463 821 850 1288 1095 39 20 74 41 80 46 5 5 12
40 16 77 4 37 13 108 18 157 6 50 17 141 25 203 7 62 16 115 20 119 3 3 27 -5
53 -20 27 -14 91 -40 143 -58 91 -31 102 -32 255 -33 121 -1 178 3 235 17 126
30 252 78 387 146 1 1 22 -8 48 -19z m-1345 -7 c0 -15 -29 -271 -46 -400 -5
-40 -9 -44 -72 -79 -139 -77 -566 -378 -602 -424 -3 -3 -36 -31 -75 -62 -83
-67 -343 -320 -443 -433 l-71 -80 -1 69 c0 64 4 96 31 266 23 138 88 362 136
470 75 168 182 352 225 388 8 6 50 20 94 31 148 36 375 106 524 161 47 17 103
38 125 45 22 8 67 25 100 39 74 30 75 30 75 9z m-2414 -232 c5 -5 50 -24 99
-43 138 -54 338 -98 442 -98 l49 0 34 -57 c108 -181 164 -264 245 -363 101
-125 95 -104 69 -232 -25 -119 -54 -344 -54 -415 0 -23 -2 -47 -5 -55 -3 -8
-68 49 -173 152 -173 170 -431 392 -654 563 -70 53 -129 101 -133 106 -3 5 4
90 15 187 11 98 20 198 20 221 0 35 3 43 18 43 10 0 22 -4 28 -9z m1120 -274
c-36 -75 -71 -139 -78 -143 -7 -5 -24 6 -42 28 -41 47 -136 207 -136 229 0 14
17 19 98 29 227 27 217 27 220 9 2 -9 -26 -78 -62 -152z m-1816 28 c0 -1 -13
-5 -30 -7 -32 -5 -42 8 -12 14 16 4 42 -1 42 -7z m150 5 c10 -6 -6 -9 -48 -8
-34 0 -65 5 -68 9 -7 12 97 11 116 -1z m75 -20 c3 -5 -1 -10 -9 -10 -9 0 -16
5 -16 10 0 6 4 10 9 10 6 0 13 -4 16 -10z m-195 -25 c0 -18 -8 -18 -40 0 l-25
14 33 1 c22 0 32 -5 32 -15z m161 -46 c6 -13 6 -25 -1 -38 -7 -13 -7 -22 0
-26 18 -11 11 -35 -10 -35 -11 0 -20 5 -20 10 0 6 -13 10 -30 10 -16 0 -30 5
-30 11 0 5 -4 7 -10 4 -6 -4 -10 7 -10 25 0 20 4 29 11 24 6 -3 10 1 9 12 -3
29 -3 30 40 26 27 -3 44 -11 51 -23z m105 7 c15 -15 20 -56 6 -56 -4 0 -12 16
-18 35 -12 38 -10 42 12 21z m-291 -27 c35 -31 36 -33 30 -87 -7 -69 -80 -202
-109 -202 -10 0 -36 -45 -36 -62 0 -4 8 -4 17 -1 15 6 16 5 3 -9 -10 -10 -19
-13 -26 -7 -17 14 -37 -16 -29 -42 5 -14 4 -19 -4 -15 -6 4 -11 0 -11 -9 0
-10 -5 -13 -12 -9 -8 5 -9 2 -5 -9 4 -11 -1 -20 -13 -27 -10 -5 -19 -18 -18
-28 0 -19 -23 -84 -34 -92 -12 -9 -13 -79 -1 -91 8 -8 13 -5 18 10 3 12 11 21
16 21 5 0 9 6 9 13 0 7 12 21 27 32 15 11 53 40 86 65 32 25 66 50 75 55 9 6
30 20 45 33 16 12 34 22 41 22 7 0 21 9 31 20 11 12 31 20 50 20 18 0 38 7 45
15 16 20 27 19 57 -5 l25 -20 -29 -27 c-16 -16 -32 -33 -34 -39 -2 -7 -29 -39
-59 -73 -81 -90 -106 -123 -115 -151 -4 -14 -13 -32 -20 -40 -7 -8 -25 -46
-40 -85 -45 -114 -35 -185 16 -110 13 19 29 35 36 35 6 0 21 12 32 26 12 15
21 23 21 18 0 -5 6 -2 13 6 17 23 135 80 162 80 13 0 27 5 30 10 13 21 85 8
85 -16 0 -13 -80 -74 -98 -74 -4 0 -19 -11 -32 -25 -13 -14 -28 -25 -32 -25
-12 0 -38 -26 -38 -38 0 -5 -8 -13 -17 -16 -38 -13 -58 -32 -55 -49 2 -9 -3
-20 -11 -23 -9 -3 -28 -24 -44 -47 -43 -64 -44 -65 -70 -53 -12 6 -23 14 -23
19 0 4 -6 7 -12 7 -13 0 -80 60 -133 121 -48 53 -88 117 -129 204 -21 44 -42
88 -47 97 -5 10 -9 27 -9 39 0 11 -4 28 -9 38 -6 9 -14 63 -19 119 -13 143 7
250 59 327 35 51 85 105 98 105 5 0 12 8 15 18 4 10 12 19 19 20 6 0 37 10 67
21 77 28 103 26 145 -10z m255 -314 c0 -2 -15 -11 -33 -20 -25 -11 -40 -13
-58 -6 -23 9 -23 10 8 10 17 1 35 6 38 11 6 10 45 14 45 5z m104 -9 c63 -32
73 -91 27 -145 -19 -22 -35 -32 -45 -28 -18 7 -22 47 -5 47 7 0 9 9 5 23 -3
12 1 35 9 50 13 25 12 29 -5 40 -11 6 -20 15 -20 19 0 11 4 10 34 -6z m-487
-78 c-3 -8 -6 -5 -6 6 -1 11 2 17 5 13 3 -3 4 -12 1 -19z m855 -55 c280 -223
656 -580 786 -745 57 -73 61 -81 66 -145 11 -118 41 -336 56 -408 5 -22 14
-67 20 -100 13 -63 37 -168 46 -197 5 -15 -1 -18 -37 -18 -24 0 -68 5 -98 10
-375 69 -435 83 -638 150 -123 40 -330 124 -347 140 -9 9 18 23 224 110 41 17
78 34 82 38 4 4 -58 139 -137 300 -80 162 -145 296 -145 298 0 2 21 14 48 26
105 48 152 104 172 206 18 90 1 152 -59 212 -31 31 -62 51 -94 60 l-47 14 0
58 c0 32 4 58 9 58 5 0 47 -30 93 -67z m-402 47 c0 -5 -2 -10 -4 -10 -3 0 -8
5 -11 10 -3 6 -1 10 4 10 6 0 11 -4 11 -10z m-70 -140 c0 -5 -4 -10 -10 -10
-5 0 -10 5 -10 10 0 6 5 10 10 10 6 0 10 -4 10 -10z m310 -176 c0 -2 -7 -4
-15 -4 -8 0 -15 4 -15 10 0 5 7 7 15 4 8 -4 15 -8 15 -10z"/>
<path d="M4560 7580 c0 -5 9 -10 20 -10 11 0 20 5 20 10 0 6 -9 10 -20 10 -11
0 -20 -4 -20 -10z"/>
<path d="M3380 6134 c-119 -21 -196 -58 -265 -128 -64 -63 -85 -120 -85 -226
0 -195 139 -413 322 -506 59 -30 127 -54 155 -54 17 0 25 -12 42 -65 33 -102
36 -99 -71 -92 -109 7 -142 18 -222 70 l-59 39 7 -29 c13 -51 75 -132 136
-178 97 -71 173 -94 330 -99 41 -2 102 -11 135 -21 81 -24 310 -24 408 -1 86
21 176 54 246 92 76 41 200 165 245 245 20 36 36 69 36 73 0 10 -30 -9 -68
-42 -45 -39 -175 -108 -251 -132 -127 -40 -226 -53 -381 -47 -80 3 -166 11
-192 17 l-47 11 -25 77 c-14 42 -26 82 -26 88 0 7 14 17 32 25 47 19 142 118
168 174 42 92 54 146 54 250 -1 80 -5 112 -24 160 -54 141 -152 228 -320 285
-36 12 -235 22 -280 14z"/>
<path d="M2961 5414 c0 -11 3 -14 6 -6 3 7 2 16 -1 19 -3 4 -6 -2 -5 -13z"/>
<path d="M3345 3610 c3 -5 8 -10 11 -10 2 0 4 5 4 10 0 6 -5 10 -11 10 -5 0
-7 -4 -4 -10z"/>
</g>
</svg>
